<?xml version="1.0" encoding="utf-8"?>
<svg version="1.1" id="layer" xmlns="http://www.w3.org/2000/svg" xmlns:xlink="http://www.w3.org/1999/xlink" x="0px" y="0px"
	 viewBox="0 0 652 652" style="enable-background:new 0 0 652 652;" xml:space="preserve">
<style type="text/css">
	.st0{fill:#101F55;}
	.st1{fill:#411D6B;}
</style>
<path class="st0" d="M522.3,305.3c-2.7,4.3-5.5,8.7-8.4,13.1c-0.7,1.1-1.4,2.2-2,3.3c-20.5-31.4-37.1-66.6-31.6-97.9
	c4.3-32.8,27-51.6,40-60.4c-9.7,12.5-26.5,32.7-27,61.3C491.5,249.9,504.5,276.9,522.3,305.3 M503.5,328.2
	c-15.8-27.2-30.6-52.5-34.5-75.5c-4.8-23.2,0.7-42.3,5.7-54c-8.7,9.5-18.7,29.5-16.2,55.1c1.8,25.8,16.2,53.3,32.2,80.8
	c2,3.6,4.1,7.1,6.3,10.6c2.7-4.6,5.6-9.1,8.4-13.6C504.8,330.5,504.2,329.4,503.5,328.2 M481.1,337.8
	c-26.3-41.6-37.8-83.2-32.3-102.5c-12.6,18-5.1,65,22.2,107.6c4.8,8,9.9,15.6,14.8,22.9c1.7-3.7,3.7-7.4,5.7-11.1
	C488,349.3,484.5,343.7,481.1,337.8 M462.1,347.7c-20-31.6-28.1-62.3-25.6-77.4c-7.9,14-2.7,49,18,81.2c8.2,12.6,16.6,24,23.7,34.2
	c0.8-2.9,1.8-5.8,2.9-8.7C475.3,367.4,468.5,357.5,462.1,347.7"/>
<path class="st1" d="M534.2,163.3c13.1,8.8,35.8,27.6,40,60.4c5.7,32.6-12.5,69.4-34.2,101.8c-20.8,33-43.7,62.9-40.4,90.8
	c2.2,28,21.8,47.1,33.7,57.6c-14.6-6.5-40.1-23.1-46.6-56.1c-7-34.2,17.6-68.5,37.8-100.7c21.6-32.6,38.7-63.7,36.7-92.4
	C560.7,196,543.9,175.8,534.2,163.3 M579.7,198.8c5,11.7,10.4,30.8,5.7,54c-3.9,23-18.7,48.3-34.5,75.5
	c-15.2,27.2-35.6,51-38.4,78.3c-2.5,27.3,16.7,44.9,28.5,49.9c-9.7-8.5-22.7-26.3-18.1-48.8c4.1-21.9,25.1-45.3,40.8-73
	c16-27.5,30.4-54.9,32.2-80.8C598.4,228.3,588.4,208.3,579.7,198.8 M605.6,235.3c5.5,19.4-6,61-32.3,102.5
	c-12.6,21.3-26.6,40-34.2,59.1c-6.8,20.2,2.7,37.4,11.5,42.9c-6.4-8-11.3-23.7-3.7-40.4c8.4-16.2,23.6-35,36.4-56.6
	C610.7,300.3,618.2,253.3,605.6,235.3 M617.9,270.3c2.5,15.1-5.6,45.7-25.6,77.4c-19.4,29.7-42.5,61-31.1,76.5
	c-5.4-16.4,17.9-40.4,38.8-72.7C620.7,319.3,625.8,284.3,617.9,270.3 M39.3,476.3c4.1,2.5,6.7,3.5,10.5,3.5c3.5,0,6.3-1.2,7.8-1.9
	c0.2-0.1,0.3-0.1,0.3-0.3c0-0.1-0.1-0.2-0.2-0.2c-0.1,0-0.2,0.1-0.4,0.1c-1.7,0.7-3.5,0.9-4.8,0.9c-1.7,0-5-0.3-10.2-3.1l-5-2.7
	c1.6-1.1,4.3-4,4.3-8.5c0-6.1-4.1-9.8-10-9.8c-7.2,0-10.1,5.8-10.1,10c0,4.7,2.8,10.3,10.1,10.3c1.3,0,2.9-0.3,3.9-0.7L39.3,476.3z
	 M38.1,464.9c0,7.6-3.7,8.5-5.7,8.5c-4,0-7.5-3.4-7.5-9.6c0-6,2.9-8.2,6.1-8.2C34.4,455.6,38.1,458.6,38.1,464.9 M52.7,468.7
	c0.1,0,0.2,0,0.2,0.2l1.7,4.4c0.1,0.2-0.1,0.5-0.2,0.5c-0.2,0-0.3,0.1-0.3,0.2c0,0.1,0.2,0.1,0.6,0.2c1.8,0,3.4,0,4.2,0
	c0.8,0,0.9,0,0.9-0.2c0-0.2-0.1-0.2-0.3-0.2c-0.3,0-0.5,0-0.8-0.1c-0.4-0.1-1-0.4-1.9-2.3c-1.4-3.3-5-12.4-5.5-13.6
	c-0.2-0.5-0.3-0.7-0.7-0.7c-0.2,0-0.4,0.3-0.6,0.9l-5.7,13.8c-0.4,1.1-0.8,1.8-1.8,1.9c-0.2,0-0.5,0-0.6,0c-0.2,0-0.2,0.1-0.2,0.2
	c0,0.2,0.1,0.2,0.4,0.2c1.1,0,2.3-0.1,2.5-0.1c0.7,0,1.7,0.1,2.4,0.1c0.2,0,0.4,0,0.4-0.2c0-0.1-0.1-0.2-0.3-0.2h-0.4
	c-0.7,0-0.9-0.2-0.9-0.6c0-0.3,0.1-0.8,0.3-1.4l1.1-2.9c0.1-0.2,0.1-0.2,0.2-0.2H52.7z M48,467.5c-0.1,0-0.1-0.1-0.1-0.2l2.1-5.6
	c0-0.1,0-0.2,0.1-0.2c0.1,0,0.1,0.1,0.1,0.2l2.1,5.6c0,0.1,0,0.1-0.1,0.1H48z M63.5,459l-3.2,0.1c-1.3,0-1.8,0.2-2.1,0.6
	c-0.2,0.3-0.3,0.6-0.4,0.8c0,0.2-0.1,0.3-0.2,0.3c-0.2,0-0.2-0.1-0.2-0.4c0-0.4,0.4-2.5,0.5-2.7c0-0.3,0.1-0.4,0.2-0.4
	c0.2,0,0.4,0.2,1,0.2c0.6,0.1,1.4,0.1,2.2,0.1H70c0.7,0,1.1-0.1,1.5-0.1c0.4,0,0.5-0.1,0.6-0.1c0.2,0,0.2,0.2,0.2,0.5
	c0,0.5,0,2.1,0,2.7c0,0.2-0.1,0.4-0.2,0.4c-0.2,0-0.2-0.1-0.2-0.4l0-0.2c-0.1-0.6-0.6-1.2-2.6-1.3l-2.7-0.1v8.9c0,2,0,3.8,0.1,4.7
	c0.1,0.6,0.2,1,0.8,1.1c0.3,0,0.8,0.1,1.1,0.1c0.2,0,0.3,0.1,0.3,0.2c0,0.1-0.2,0.2-0.4,0.2c-1.4,0-2.9-0.1-3.5-0.1
	c-0.5,0-2,0.1-2.9,0.1c-0.3,0-0.4-0.1-0.4-0.2c0-0.1,0.1-0.2,0.3-0.2c0.3,0,0.6,0,0.8-0.1c0.4-0.1,0.6-0.5,0.6-1.2
	c0.1-0.9,0.1-2.7,0.1-4.7V459z M80.8,468.7c0.1,0,0.2,0,0.2,0.2l1.7,4.4c0.1,0.2-0.1,0.5-0.2,0.5c-0.2,0-0.3,0.1-0.3,0.2
	c0,0.1,0.2,0.1,0.6,0.2c1.8,0,3.4,0,4.2,0c0.8,0,0.9,0,0.9-0.2c0-0.2-0.1-0.2-0.3-0.2c-0.3,0-0.5,0-0.8-0.1c-0.4-0.1-1-0.4-1.9-2.3
	c-1.4-3.3-5-12.4-5.5-13.6c-0.2-0.5-0.3-0.7-0.6-0.7c-0.2,0-0.4,0.3-0.6,0.9l-5.7,13.8c-0.4,1.1-0.8,1.8-1.8,1.9c-0.2,0-0.4,0-0.7,0
	c-0.2,0-0.2,0.1-0.2,0.2c0,0.2,0.2,0.2,0.4,0.2c1.1,0,2.3-0.1,2.5-0.1c0.7,0,1.7,0.1,2.4,0.1c0.2,0,0.4,0,0.4-0.2
	c0-0.1-0.1-0.2-0.3-0.2h-0.3c-0.7,0-0.9-0.2-0.9-0.6c0-0.3,0.1-0.8,0.3-1.4l1.2-2.9c0-0.2,0.1-0.2,0.2-0.2H80.8z M76.1,467.5
	c-0.1,0-0.1-0.1-0.1-0.2l2.1-5.6c0.1-0.1,0.1-0.2,0.2-0.2c0,0,0.1,0.1,0.1,0.2l2,5.6c0,0.1,0,0.1-0.1,0.1H76.1z M90.4,467.9
	c0,2,0,3.8-0.1,4.7c-0.1,0.7-0.2,1.1-0.7,1.2c-0.2,0-0.4,0.1-0.8,0.1c-0.3,0-0.3,0.1-0.3,0.3c0,0.1,0.2,0.2,0.4,0.2
	c0.9,0,2.2-0.1,2.7-0.1c0.3,0,2.1,0.1,3.4,0.1c0.3,0,0.4-0.1,0.4-0.2c0-0.1-0.1-0.3-0.3-0.3c-0.3,0-0.7,0-1.1-0.1
	c-0.7-0.1-0.8-0.5-0.8-1.2c-0.1-0.9-0.1-2.6-0.1-4.7v-0.3c0-0.1,0.1-0.2,0.2-0.2l2,0.1c0.1,0,0.3,0,0.4,0.1c0.3,0.4,1.2,1.8,2.1,3
	c1.2,1.7,2,2.8,3,3.3c0.6,0.3,1.1,0.4,2.4,0.4h2.1c0.3,0,0.4,0,0.4-0.2c0-0.1-0.1-0.3-0.3-0.3s-0.3,0-0.5-0.1
	c-0.3,0-1.1-0.2-2.3-1.5c-1.3-1.4-2.8-3.3-4.8-5.8c2.1-1.8,3-3.2,3-4.9c0-1.5-0.9-2.6-1.5-3c-1.1-0.8-2.7-0.9-4.1-0.9
	c-0.7,0-2.6,0-3.4,0c-0.5,0-1.8,0-3,0c-0.3,0-0.5,0-0.5,0.2c0,0.2,0.2,0.2,0.4,0.2c0.3,0,0.7,0,0.9,0.1c0.7,0.2,0.9,0.4,0.9,1.2
	c0,0.7,0,1.3,0,4.7V467.9z M93.1,459.1c0-0.2,0.1-0.2,0.2-0.3c0.2,0,0.7-0.1,1.3-0.1c1.3,0,3.3,0.8,3.3,3.9c0,1.8-0.7,2.8-1.4,3.3
	c-0.4,0.3-0.7,0.3-1.5,0.3c-0.5,0-1.2-0.1-1.7-0.2c-0.2-0.1-0.2-0.1-0.2-0.4V459.1z M115.2,466.8c0,2.4,0,4.4-0.1,5.5
	c-0.1,0.7-0.2,1.3-0.7,1.4c-0.2,0.1-0.5,0.1-0.9,0.1c-0.3,0-0.4,0.1-0.4,0.2c0,0.2,0.2,0.2,0.5,0.2c0.5,0,1.1,0,1.7,0
	c0.6,0,1.1,0,1.4,0c0.6,0,1.5,0.1,2.4,0.2c0.9,0.1,2,0.1,2.8,0.1c4.6,0,7.2-1.8,8.3-3.1c1.4-1.5,2.7-4,2.7-7.2
	c0-3.1-1.2-5.2-2.4-6.6c-2.7-3-6.8-3-9.9-3c-1.5,0-3,0.1-3.8,0.1c-0.7,0-2.2-0.1-3.5-0.1c-0.4,0-0.6,0.1-0.6,0.2
	c0,0.2,0.1,0.2,0.4,0.2c0.3,0,0.8,0,1,0.1c0.8,0.2,1,0.6,1.1,1.5c0,0.8,0,1.6,0,5.5V466.8z M118.3,461.8c0-2.1,0-4.3,0-5.2
	c0-0.3,0.1-0.4,0.3-0.5c0.2-0.1,1.1-0.2,1.6-0.2c1.9,0,4.8,0.3,7,2.6c1.1,1,2.4,3.2,2.4,6.5c0,2.7-0.5,5-2.1,6.4
	c-1.5,1.4-3.2,1.9-5.7,1.9c-1.9,0-2.9-0.5-3.2-1c-0.2-0.3-0.3-1.3-0.3-2c0-0.5-0.1-2.5-0.1-5.2V461.8z M136.8,464c0-3.4,0-4,0-4.7
	c-0.1-0.7-0.2-1-0.9-1.2c-0.2-0.1-0.5-0.1-0.9-0.1c-0.2,0-0.4-0.1-0.4-0.2c0-0.2,0.2-0.2,0.5-0.2c1.1,0,2.5,0,3.1,0
	c0.7,0,5.5,0,5.9,0c0.4,0,0.7-0.1,0.9-0.1c0.1,0,0.3-0.1,0.4-0.1c0.1,0,0.2,0.1,0.2,0.2c0,0.1-0.1,0.4-0.2,1.4
	c0,0.3-0.1,1.2-0.1,1.5c0,0.1-0.1,0.4-0.2,0.4c-0.2,0-0.2-0.1-0.2-0.3c0-0.2,0-0.5-0.2-0.8c-0.2-0.4-0.3-0.7-1.4-0.8
	c-0.4-0.1-3-0.1-3.4-0.1c-0.1,0-0.1,0.1-0.1,0.2v5.4c0,0.2,0,0.3,0.1,0.3c0.5,0,3.3,0,3.8-0.1c0.5,0,0.9-0.1,1-0.3
	c0.2-0.2,0.3-0.3,0.4-0.3c0.1,0,0.2,0.1,0.2,0.2c0,0.1-0.1,0.5-0.2,1.6c0,0.4-0.1,1.3-0.1,1.5c0,0.2,0,0.5-0.2,0.5
	c-0.2,0-0.2-0.1-0.2-0.2c0-0.2,0-0.5-0.1-0.8c-0.1-0.5-0.4-0.8-1.2-0.9c-0.4,0-2.9-0.1-3.4-0.1c-0.1,0-0.1,0.1-0.1,0.2v1.8
	c0,0.8,0,2.6,0,3.3c0,1.5,0.7,1.8,2.9,1.8c0.6,0,1.5,0,2-0.3c0.6-0.2,0.8-0.7,1-1.6c0-0.3,0.1-0.4,0.2-0.4c0.2,0,0.2,0.3,0.2,0.5
	c0,0.5-0.2,2-0.3,2.4c-0.2,0.6-0.4,0.6-1.2,0.6c-1.6,0-3,0-4-0.1c-1.1,0-1.9-0.1-2.5-0.1c-0.2,0-0.7,0-1.3,0c-0.5,0-1.1,0-1.5,0
	c-0.3,0-0.4-0.1-0.4-0.2c0-0.1,0.1-0.3,0.4-0.3c0.3,0,0.5,0,0.8-0.1c0.4-0.1,0.6-0.5,0.6-1.2c0.1-0.9,0.1-2.7,0.1-4.7V464z
	 M149.1,459.8c-0.5-1.2-0.8-1.4-1.6-1.6c-0.3-0.1-0.7-0.1-0.8-0.1c-0.2,0-0.2-0.1-0.2-0.2c0-0.2,0.2-0.2,0.5-0.2
	c1.2,0,2.4,0.1,3.2,0.1c0.5,0,1.7-0.1,2.8-0.1c0.3,0,0.5,0.1,0.5,0.2c0,0.2-0.2,0.2-0.3,0.2c-0.3,0-0.7,0-0.8,0.2
	c-0.2,0.1-0.2,0.2-0.2,0.4c0,0.3,0.2,0.9,0.5,1.7l3.7,9.9h0.1c0.9-2.3,3.7-9.4,4.3-10.8c0.1-0.3,0.2-0.6,0.2-0.8
	c0-0.2-0.1-0.3-0.3-0.4c-0.2-0.1-0.6-0.1-0.9-0.1c-0.2,0-0.4-0.1-0.4-0.2c0-0.2,0.2-0.2,0.6-0.2c1.1,0,2,0.1,2.3,0.1
	c0.3,0,1.4-0.1,2.1-0.1c0.3,0,0.4,0.1,0.4,0.2c0,0.2-0.1,0.2-0.3,0.2c-0.2,0-0.7,0-1.1,0.3c-0.2,0.2-0.5,0.6-1.1,1.9
	c-0.8,2.1-1.4,3.3-2.6,6c-1.4,3.2-2.4,5.6-2.9,6.7c-0.5,1.3-0.7,1.6-1,1.6c-0.3,0-0.5-0.3-0.9-1.3L149.1,459.8z M166.9,464
	c0-3.4,0-4,0-4.7c0-0.7-0.3-1-0.9-1.2c-0.2-0.1-0.5-0.1-0.9-0.1c-0.2,0-0.4-0.1-0.4-0.2c0-0.2,0.2-0.2,0.5-0.2c1.1,0,2.5,0,3.1,0
	c0.7,0,5.5,0,5.9,0c0.4,0,0.8-0.1,0.9-0.1c0.1,0,0.2-0.1,0.4-0.1c0.1,0,0.1,0.1,0.1,0.2c0,0.1-0.1,0.4-0.2,1.4
	c0,0.3-0.1,1.2-0.1,1.5c0,0.1-0.1,0.4-0.3,0.4c-0.1,0-0.2-0.1-0.2-0.3c0-0.2,0-0.5-0.2-0.8c-0.2-0.4-0.3-0.7-1.4-0.8
	c-0.4-0.1-3-0.1-3.4-0.1c-0.1,0-0.2,0.1-0.2,0.2v5.4c0,0.2,0,0.3,0.2,0.3c0.5,0,3.3,0,3.8-0.1c0.5,0,0.8-0.1,1-0.3
	c0.2-0.2,0.3-0.3,0.4-0.3c0.1,0,0.2,0.1,0.2,0.2c0,0.1-0.1,0.5-0.2,1.6c-0.1,0.4-0.1,1.3-0.1,1.5c0,0.2,0,0.5-0.2,0.5
	c-0.2,0-0.2-0.1-0.2-0.2c0-0.2,0-0.5-0.1-0.8c-0.1-0.5-0.4-0.8-1.2-0.9c-0.4,0-2.9-0.1-3.4-0.1c-0.1,0-0.1,0.1-0.1,0.2v1.8
	c0,0.8,0,2.6,0,3.3c0.1,1.5,0.7,1.8,2.9,1.8c0.6,0,1.5,0,2-0.3c0.6-0.2,0.8-0.7,0.9-1.6c0-0.3,0.1-0.4,0.3-0.4
	c0.2,0,0.2,0.3,0.2,0.5c0,0.5-0.2,2-0.3,2.4c-0.2,0.6-0.3,0.6-1.1,0.6c-1.6,0-2.9,0-4-0.1c-1.1,0-1.9-0.1-2.5-0.1
	c-0.2,0-0.7,0-1.2,0c-0.5,0-1.1,0-1.5,0c-0.3,0-0.4-0.1-0.4-0.2c0-0.1,0.1-0.3,0.4-0.3c0.3,0,0.6,0,0.8-0.1c0.4-0.1,0.5-0.5,0.6-1.2
	c0.1-0.9,0.1-2.7,0.1-4.7V464z M183.5,467.9c0,2.8,0,4.2,0.5,4.6c0.4,0.3,1.2,0.5,2.9,0.5c1.1,0,2,0,2.5-0.6
	c0.3-0.3,0.5-0.9,0.5-1.3c0-0.2,0.1-0.3,0.2-0.3c0.2,0,0.2,0.2,0.2,0.5c0,0.3-0.2,1.9-0.3,2.5c-0.2,0.5-0.2,0.6-1.4,0.6
	c-1.6,0-2.8,0-3.9-0.1c-1.1,0-2-0.1-2.9-0.1c-0.2,0-0.7,0-1.2,0c-0.5,0-1.1,0-1.5,0c-0.3,0-0.4-0.1-0.4-0.2c0-0.1,0.1-0.3,0.3-0.3
	c0.3,0,0.6,0,0.8-0.1c0.4-0.1,0.6-0.5,0.6-1.2c0.1-0.9,0.1-2.7,0.1-4.7V464c0-3.4,0-4,0-4.7c0-0.7-0.3-1-0.9-1.2
	c-0.2-0.1-0.4-0.1-0.7-0.1c-0.2,0-0.4-0.1-0.4-0.2s0.2-0.2,0.5-0.2c1,0,2.4,0.1,3,0.1c0.5,0,2.3-0.1,3.1-0.1c0.3,0,0.5,0.1,0.5,0.2
	s-0.1,0.2-0.4,0.2c-0.2,0-0.6,0-0.8,0.1c-0.6,0.1-0.8,0.4-0.8,1.2c0,0.7,0,1.3,0,4.7V467.9z M191.4,465.9c0,3.9,2.6,8.6,8.9,8.6
	c5.6,0,9.1-4,9.1-9c0-5.1-3.4-8.3-8.9-8.3C193.9,457.3,191.4,462.2,191.4,465.9 M206.2,466.3c0,6.3-3.5,7-5,7
	c-4.1,0-6.6-3.6-6.6-8.1c0-5.5,2.8-6.8,5.3-6.8C203.4,458.5,206.2,461.5,206.2,466.3 M213.4,464c0-3.4,0-4,0-4.7
	c-0.1-0.7-0.3-1-1-1.2c-0.2-0.1-0.6-0.1-0.9-0.1c-0.2,0-0.4-0.1-0.4-0.2c0-0.2,0.2-0.2,0.5-0.2c1.1,0,2.5,0,3.2,0c0.9,0,2.6,0,3.6,0
	c2.7,0,3.7,0.9,4.1,1.3c0.5,0.4,1.1,1.4,1.1,2.6c0,3.1-2.4,5.3-5.5,5.3h-0.6c-0.1,0-0.3-0.1-0.3-0.2c0-0.2,0.2-0.3,0.7-0.3
	c1.2,0,2.9-1.3,2.9-3.6c0-0.8-0.1-2.2-1.3-3.3c-0.8-0.7-1.7-0.8-2.2-0.8c-0.3,0-0.7,0-0.9,0.1c-0.1,0.1-0.2,0.2-0.2,0.4v8.8
	c0,2,0,3.8,0.1,4.7c0.1,0.6,0.2,1,0.8,1.1c0.3,0,0.8,0.1,1.1,0.1c0.2,0,0.3,0.1,0.3,0.3c0,0.1-0.2,0.2-0.4,0.2c-1.5,0-3-0.1-3.6-0.1
	c-0.5,0-1.9,0.1-2.7,0.1c-0.3,0-0.4-0.1-0.4-0.2c0-0.1,0.1-0.3,0.3-0.3c0.4,0,0.6,0,0.8-0.1c0.4-0.1,0.6-0.5,0.7-1.2
	c0.1-0.9,0.1-2.7,0.1-4.7V464z M229,457.7c0-0.4,0.2-0.6,0.4-0.6c0.2,0,0.4,0.1,0.7,0.7l5.8,12.3l5.8-12.4c0.2-0.4,0.4-0.5,0.6-0.5
	c0.2,0,0.4,0.2,0.5,0.7l2,13.6c0.2,1.4,0.4,2,1,2.2c0.6,0.2,1,0.2,1.2,0.2c0.2,0,0.3,0.1,0.3,0.2c0,0.2-0.3,0.2-0.6,0.2
	c-0.5,0-3.6-0.1-4.5-0.1c-0.5,0-0.6-0.1-0.6-0.3c0-0.1,0.1-0.2,0.2-0.2c0.1-0.1,0.2-0.3,0.1-0.9l-1.2-9.5h-0.1l-4.7,9.8
	c-0.5,1.1-0.6,1.3-0.9,1.3c-0.3,0-0.5-0.4-0.9-1.1c-0.5-1-2.2-4.4-2.5-5c-0.2-0.4-1.5-3.2-2.2-4.7h-0.1l-1,8.6
	c-0.1,0.4-0.1,0.7-0.1,1c0,0.4,0.3,0.6,0.7,0.6c0.4,0.1,0.5,0.1,0.8,0.1c0.2,0,0.3,0.1,0.3,0.2c0,0.2-0.2,0.2-0.5,0.2
	c-0.9,0-1.9-0.1-2.3-0.1c-0.4,0-1.5,0.1-2.1,0.1c-0.2,0-0.4,0-0.4-0.2c0-0.1,0.1-0.2,0.4-0.2c0.2,0,0.3,0,0.7-0.1
	c0.6-0.1,0.8-1,0.9-1.7L229,457.7z M251,464c0-3.4,0-4,0-4.7c0-0.7-0.2-1-0.9-1.2c-0.2-0.1-0.5-0.1-0.9-0.1c-0.2,0-0.4-0.1-0.4-0.2
	c0-0.2,0.2-0.2,0.5-0.2c1.1,0,2.5,0,3.2,0c0.7,0,5.5,0,5.9,0c0.4,0,0.7-0.1,0.9-0.1c0.1,0,0.2-0.1,0.3-0.1c0.1,0,0.2,0.1,0.2,0.2
	c0,0.1-0.1,0.4-0.2,1.4c0,0.3-0.1,1.2-0.1,1.5c0,0.1-0.1,0.4-0.2,0.4c-0.2,0-0.2-0.1-0.2-0.3c0-0.2,0-0.5-0.2-0.8
	c-0.2-0.4-0.3-0.7-1.4-0.8c-0.3-0.1-3-0.1-3.4-0.1c-0.1,0-0.2,0.1-0.2,0.2v5.4c0,0.2,0,0.3,0.2,0.3c0.5,0,3.3,0,3.8-0.1
	c0.5,0,0.8-0.1,1-0.3c0.2-0.2,0.2-0.3,0.4-0.3c0.1,0,0.2,0.1,0.2,0.2c0,0.1-0.1,0.5-0.2,1.6c0,0.4-0.1,1.3-0.1,1.5
	c0,0.2,0,0.5-0.2,0.5c-0.1,0-0.2-0.1-0.2-0.2c0-0.2,0-0.5-0.1-0.8c-0.1-0.5-0.4-0.8-1.2-0.9c-0.4,0-2.9-0.1-3.4-0.1
	c-0.1,0-0.1,0.1-0.1,0.2v1.8c0,0.8,0,2.6,0,3.3c0.1,1.5,0.7,1.8,2.9,1.8c0.6,0,1.5,0,2-0.3c0.5-0.2,0.8-0.7,0.9-1.6
	c0-0.3,0.1-0.4,0.2-0.4c0.2,0,0.2,0.3,0.2,0.5c0,0.5-0.2,2-0.3,2.4c-0.1,0.6-0.3,0.6-1.2,0.6c-1.6,0-2.9,0-4-0.1
	c-1.1,0-1.9-0.1-2.5-0.1c-0.2,0-0.7,0-1.2,0c-0.5,0-1.1,0-1.5,0c-0.3,0-0.4-0.1-0.4-0.2c0-0.1,0.1-0.3,0.3-0.3c0.3,0,0.6,0,0.8-0.1
	c0.4-0.1,0.6-0.5,0.7-1.2c0.1-0.9,0.1-2.7,0.1-4.7V464z M266,471.3c0.1,1.7,0.3,2.2,0.7,2.4c0.4,0.1,0.8,0.2,1.1,0.2
	c0.3,0,0.4,0.1,0.4,0.3c0,0.2-0.2,0.2-0.5,0.2c-1.4,0-2.4-0.1-2.8-0.1c-0.2,0-1.2,0.1-2.4,0.1c-0.3,0-0.5,0-0.5-0.2
	c0-0.2,0.1-0.3,0.3-0.3c0.3,0,0.7,0,1-0.1c0.6-0.1,0.7-0.7,0.7-2.7l0.2-13c0-0.5,0.1-0.8,0.3-0.8c0.3,0,0.6,0.3,0.9,0.7
	c0.3,0.3,3.5,3.8,6.7,7c1.5,1.5,4.4,4.7,4.7,5h0.1l-0.2-9.8c0-1.3-0.2-1.7-0.8-1.9c-0.3-0.1-0.8-0.1-1.1-0.1c-0.3,0-0.3-0.1-0.3-0.2
	c0-0.2,0.2-0.2,0.5-0.2c1.1,0,2.3,0.1,2.8,0.1c0.3,0,1.1-0.1,2.1-0.1c0.3,0,0.5,0,0.5,0.2c0,0.1-0.1,0.2-0.4,0.2
	c-0.2,0-0.4,0-0.7,0.1c-0.6,0.2-0.8,0.5-0.8,1.8l-0.2,13.9c0,0.5-0.2,0.7-0.4,0.7c-0.3,0-0.6-0.2-0.9-0.5c-1.3-1.3-4.1-4.1-6.3-6.4
	c-2.4-2.4-4.7-5-5.1-5.4h-0.1L266,471.3z M288.3,459l-3.2,0.1c-1.3,0-1.8,0.2-2.1,0.6c-0.2,0.3-0.3,0.6-0.4,0.8
	c-0.1,0.2-0.1,0.3-0.3,0.3c-0.1,0-0.2-0.1-0.2-0.4c0-0.4,0.4-2.5,0.5-2.7c0-0.3,0.1-0.4,0.2-0.4c0.2,0,0.4,0.2,0.9,0.2
	c0.7,0.1,1.5,0.1,2.2,0.1h8.8c0.7,0,1.2-0.1,1.5-0.1c0.4,0,0.5-0.1,0.6-0.1c0.2,0,0.2,0.2,0.2,0.5c0,0.5-0.1,2.1-0.1,2.7
	c0,0.2-0.1,0.4-0.2,0.4c-0.2,0-0.2-0.1-0.2-0.4l0-0.2c0-0.6-0.6-1.2-2.5-1.3l-2.7-0.1v8.9c0,2,0,3.8,0.1,4.7c0.1,0.6,0.2,1,0.8,1.1
	c0.3,0,0.8,0.1,1.1,0.1c0.2,0,0.3,0.1,0.3,0.2c0,0.1-0.2,0.2-0.4,0.2c-1.4,0-2.9-0.1-3.5-0.1c-0.5,0-2,0.1-2.8,0.1
	c-0.3,0-0.4-0.1-0.4-0.2c0-0.1,0.1-0.2,0.3-0.2c0.3,0,0.6,0,0.8-0.1c0.4-0.1,0.6-0.5,0.6-1.2c0.1-0.9,0.1-2.7,0.1-4.7V459z
	 M309,466.8c0,2.4,0,4.4-0.1,5.5c-0.1,0.7-0.2,1.3-0.7,1.4c-0.2,0.1-0.5,0.1-0.9,0.1c-0.3,0-0.4,0.1-0.4,0.2c0,0.2,0.2,0.2,0.5,0.2
	c0.5,0,1.1,0,1.7,0c0.6,0,1.1,0,1.4,0c0.4,0,1.1,0,1.8,0.1c0.7,0,1.4,0.1,1.7,0.1c4.5,0,6.6-2.9,6.6-5.7c0-3-2.5-4.8-4.5-5.6
	c1.3-1.1,2.5-2.4,2.5-4.5c0-1.4-0.8-3.9-5.3-3.9c-0.8,0-1.8,0.1-3,0.1c-0.5,0-2.1-0.1-3.4-0.1c-0.4,0-0.5,0.1-0.5,0.2
	c0,0.2,0.1,0.2,0.4,0.2c0.3,0,0.8,0,0.9,0.1c0.8,0.2,1,0.6,1.1,1.5c0.1,0.8,0.1,1.5,0.1,5.5V466.8z M311.9,456.2
	c0-0.3,0.1-0.4,0.2-0.5c0.2,0,0.5,0,0.8,0c2.1,0,3.1,2.3,3.1,4c0,1.3-0.4,2.2-1,2.8c-0.4,0.4-0.9,0.5-1.8,0.5c-0.6,0-1,0-1.2-0.1
	c-0.1-0.1-0.2-0.1-0.2-0.3V456.2z M315.2,464.7c1.9,1.4,2.4,3.6,2.4,5.2c0,2.7-1.9,3.3-3,3.3c-0.6,0-1.1,0-1.8-0.3
	c-0.8-0.3-0.9-0.8-0.9-2.5v-6.2c0-0.1,0.1-0.2,0.2-0.2c0.4,0,0.6,0,1.1,0C314.1,464.1,314.7,464.3,315.2,464.7 M331.2,468.7
	c0.1,0,0.2,0,0.2,0.2l1.7,4.4c0.1,0.2,0,0.5-0.2,0.5c-0.2,0-0.3,0.1-0.3,0.2c0,0.1,0.2,0.1,0.6,0.2c1.8,0,3.4,0,4.2,0
	c0.8,0,0.9,0,0.9-0.2c0-0.2-0.1-0.2-0.3-0.2c-0.2,0-0.5,0-0.8-0.1c-0.4-0.1-1-0.4-1.9-2.3c-1.4-3.3-5-12.4-5.5-13.6
	c-0.2-0.5-0.3-0.7-0.7-0.7c-0.2,0-0.4,0.3-0.6,0.9l-5.7,13.8c-0.5,1.1-0.8,1.8-1.8,1.9c-0.2,0-0.4,0-0.6,0c-0.2,0-0.2,0.1-0.2,0.2
	c0,0.2,0.1,0.2,0.4,0.2c1.1,0,2.3-0.1,2.5-0.1c0.7,0,1.7,0.1,2.4,0.1c0.2,0,0.3,0,0.3-0.2c0-0.1-0.1-0.2-0.3-0.2h-0.3
	c-0.6,0-0.9-0.2-0.9-0.6c0-0.3,0.1-0.8,0.3-1.4l1.2-2.9c0-0.2,0.1-0.2,0.2-0.2H331.2z M326.6,467.5c-0.1,0-0.1-0.1-0.1-0.2l2.1-5.6
	c0-0.1,0.1-0.2,0.1-0.2c0.1,0,0.1,0.1,0.1,0.2l2,5.6c0,0.1,0,0.1-0.1,0.1H326.6z M342.2,471.3c0,1.7,0.3,2.2,0.7,2.4
	c0.3,0.1,0.8,0.2,1.1,0.2c0.2,0,0.4,0.1,0.4,0.3c0,0.2-0.2,0.2-0.5,0.2c-1.4,0-2.4-0.1-2.8-0.1c-0.2,0-1.2,0.1-2.3,0.1
	c-0.3,0-0.5,0-0.5-0.2c0-0.2,0.2-0.3,0.3-0.3c0.3,0,0.7,0,1-0.1c0.6-0.1,0.6-0.7,0.7-2.7l0.2-13c0-0.5,0.2-0.8,0.4-0.8
	c0.2,0,0.5,0.3,0.9,0.7c0.3,0.3,3.5,3.8,6.7,7c1.5,1.5,4.4,4.7,4.7,5h0.1l-0.2-9.8c0-1.3-0.2-1.7-0.7-1.9c-0.3-0.1-0.8-0.1-1.1-0.1
	c-0.3,0-0.4-0.1-0.4-0.2c0-0.2,0.2-0.2,0.5-0.2c1.1,0,2.3,0.1,2.8,0.1c0.2,0,1.1-0.1,2.1-0.1c0.3,0,0.5,0,0.5,0.2
	c0,0.1-0.2,0.2-0.4,0.2c-0.2,0-0.4,0-0.7,0.1c-0.6,0.2-0.8,0.5-0.8,1.8l-0.2,13.9c0,0.5-0.2,0.7-0.3,0.7c-0.4,0-0.7-0.2-0.9-0.5
	c-1.3-1.3-4.1-4.1-6.3-6.4c-2.4-2.4-4.7-5-5.1-5.4h-0.1L342.2,471.3z M364.4,465h0.1c0.7-0.8,3.9-4.1,4.5-4.8
	c0.6-0.7,1.1-1.3,1.1-1.6c0-0.2-0.1-0.4-0.3-0.4c-0.2,0-0.3-0.1-0.3-0.2c0-0.2,0.1-0.2,0.3-0.2c0.5,0,1.7,0.1,2.3,0.1
	c0.7,0,1.9-0.1,2.5-0.1c0.2,0,0.4,0.1,0.4,0.2c0,0.2-0.1,0.2-0.3,0.2c-0.3,0-0.9,0.1-1.2,0.3c-0.7,0.3-1.4,0.7-2.3,1.6
	c-0.7,0.7-3.9,3.9-4.6,4.7c0.8,1,5,5.7,5.9,6.5c0.9,0.9,1.8,1.9,3,2.4c0.6,0.3,1.1,0.3,1.3,0.3c0.2,0,0.3,0.1,0.3,0.2
	c0,0.1-0.1,0.2-0.5,0.2h-1.9c-0.7,0-1,0-1.5,0c-1.1-0.1-1.9-0.6-2.8-1.4c-0.9-0.9-5.1-6-5.6-6.6l-0.2-0.3h-0.1v2c0,2,0,3.8,0.1,4.7
	c0,0.6,0.2,1,0.8,1.2c0.3,0,0.8,0.1,1.1,0.1c0.2,0,0.3,0.1,0.3,0.2c0,0.1-0.2,0.2-0.4,0.2c-1.2,0-2.8-0.1-3.3-0.1
	c-0.5,0-1.9,0.1-2.7,0.1c-0.3,0-0.4-0.1-0.4-0.2c0-0.1,0.1-0.2,0.3-0.2c0.3,0,0.6,0,0.8-0.1c0.4-0.1,0.6-0.5,0.6-1.2
	c0.1-0.9,0.1-2.7,0.1-4.7V464c0-3.4,0-4-0.1-4.7c0-0.7-0.2-1-0.9-1.2c-0.2,0-0.5-0.1-0.9-0.1c-0.2,0-0.4-0.1-0.4-0.2
	c0-0.2,0.2-0.2,0.5-0.2c1.2,0,2.5,0.1,3,0.1c0.5,0,2.1-0.1,2.8-0.1c0.3,0,0.5,0.1,0.5,0.2c0,0.2-0.1,0.2-0.3,0.2
	c-0.2,0-0.3,0-0.6,0.1c-0.6,0.1-0.8,0.4-0.8,1.2c0,0.7,0,1.3,0,4.7V465z M131.5,358.1c25.2,15.5,41.5,21.8,64.6,21.8
	c22,0,42.2-10.2,48.9-15.3c-0.6,0-1.4,0.5-2.3,0.8c-10.5,4.3-21.8,5.6-29.8,5.6c-10.4,0-30.7-1.8-62.9-19.1l-30.7-16.5
	c9.6-6.7,26.6-24.5,26.6-52.7c0-37.5-25.4-60.7-61.9-60.7c-44.7,0-62.6,35.9-62.6,62c0,28.8,17.4,63.6,62.2,63.6
	c8.1,0,17.9-1.7,24-4.1L131.5,358.1z M124.5,286.9c0,47-23.1,52.6-35.3,52.6c-24.6,0-46.6-21.2-46.6-59.3
	c0-37.1,17.9-50.6,37.9-50.6C101.6,229.5,124.5,248.1,124.5,286.9 M347.3,276.2c14.3,2.7,27.8,13,27.8,34.7c0,20.4-16.3,35-40.8,35
	h-43.8c2.4-3.7,5.3-3.3,7.6-4.7c4.4-2.7,4.9-7.6,4.9-11.2v-51.2c0-24.4,0-36.1-0.3-41.2c-0.3-5.5-1.6-8.9-6.6-10
	c-1.2-0.3-6,0.4-9-3.4h40.6c26,0,35.2,15.3,35.2,29C362.9,263.1,356.6,273,347.3,276.2 M321.3,275.6h8.2c5,0,8.4-0.7,11-3.1
	c4-3.4,6.3-9.2,6.3-17c0-12.5-6-24.9-19.1-24.9h-6.4V275.6z M334.3,338.7c13.8,0,22-12.6,22-27.8c0-28.3-21.6-28.2-27.5-28.5
	c-2.7-0.2-7.5-0.1-7.5-0.1v43.6c0,10.7-1.1,12.8-1.1,12.8H334.3 M262.7,242.4c7.7,8.4,14.8,21.7,14.8,40.8
	c0,20.2-8.1,35.7-16.7,44.8c-7,7.5-22.9,18.9-51.2,18.9c-5.5,0-8.1-0.5-13.9-1c-14.1-1.6-26.4-1.2-35.1,0c2.4-3.7,5.3-3.3,7.6-4.7
	c4.4-2.7,4.8-7.6,4.8-11.2c0,0,0-89.6,0-92.5c0-5.5-1.8-8.9-6.9-10c-1.2-0.3-6,0.4-9-3.4h50.6c0,0,0,0-0.1,0
	C226.2,224.2,247.3,225.6,262.7,242.4 M244.2,327.7c9.8-8.8,12.8-23.4,12.8-39.9c0-20.4-8.1-33.6-14.7-40.1
	c-14.1-14.1-29.8-16-41.7-16h-8.5V326c0,10.7-1.1,12.8-1.1,12.8s14.5,1.2,18,1.2C224.6,340,235,336.1,244.2,327.7 M178.6,446.9
	l0.2-0.1c5.1-1.5,7.9-5,8.3-10.5c0.8,0.4,1.7,0.5,2.7,0.5h73.4c3.5,0,6-0.8,7.5-2.4c1.6-1.8,2.3-4.8,2.3-9.2v-2.3
	c0-2-0.6-3.7-1.7-4.9c-1.2-1.3-3-2-5.2-2c-1.7,0-3.1,0.5-4.3,1.4c-1.6,1.3-2.5,3.2-2.5,5.7c0,4.7,2.3,7.1,6.8,7.1
	c1.4,0,2.6-0.2,3.5-0.5c-0.2,3.1-1.8,4.3-5.8,4.3l-15.3-0.1v-8.6c0-2.4-1-4.4-2.9-5.8c-1.9-1.5-4.3-2.2-7.2-2.2c-6,0-11,4-14.9,12.1
	l0.3-15.5l0.5-5.8l-4.2,0.5l0.5,5.3v20.1h-29.7c-2.5,0-3.8-1.5-3.8-4.6v-12.6l-3.9,1l0.7,6v12.5c0,1.6-0.4,3.2-1.2,4.6
	c-1.1,1.9-2.7,3.3-4.8,4.1l-0.3,0.1L178.6,446.9z M237.5,420.3c4.9,0,7.8,2.2,7.8,5.9v7.8l-21.1,0.1
	C228.1,424.9,232.6,420.3,237.5,420.3 M266.3,417.9c2.5,0,3.6,1.7,3.6,5.1c0,1.7,0,3.8-0.1,4.2c-1,0.6-2.3,0.9-3.9,0.9
	c-2.3,0-3.4-1.6-3.4-4.8C262.5,419.7,263.8,417.9,266.3,417.9 M82,439.7c2.7,0,5.6-1.8,7.4-4.7c1.3,1.3,2.7,1.8,4.3,1.8h20.5
	c1.7,0,3.1-0.6,4.1-1.8c1.1,1.2,2.5,1.8,4.3,1.8h10.6c1.7,0,3-0.6,4.1-1.8c1.1,1.2,2.5,1.8,4.4,1.8h6.1c1.7,0,3.1-0.6,4.1-1.8
	c1.1,1.2,2.5,1.8,4.3,1.8h8.7c3.7,0,5.9-2.5,5.9-6.6v-23.5l-3.8,1l0.7,5.8v15.9c0,3.1-1.2,4.6-3.8,4.6h-6.7c-2.5,0-3.7-1.5-3.7-4.6
	v-22.8l-4,1l0.7,6v15.7c0,3.1-1.2,4.6-3.7,4.6h-3.9c-2.4,0-3.7-1.5-3.7-4.6v-12.6l-3.9,1l0.7,6v5.6c0,3.1-1.2,4.6-3.8,4.6h-8.4
	c-2.5,0-3.7-1.5-3.7-4.6v-12.6l-3.9,1l0.7,6v5.6c0,3.1-1.2,4.6-3.8,4.6H94.7c-1.2,0-2.1-0.3-2.7-1c-0.7-0.7-1-2-1-3.6v-5l0.4-4.7
	l-0.2-0.1c-1.6-0.6-3.4-0.9-5.4-0.9c-6.2,0-10.1,4.4-10.3,11.4c-0.1,2.5-1.3,3.8-3.6,3.8h-3.2c-2.5,0-3.7-1.5-3.7-4.6v-12.6l-4,1
	l0.7,6v5.6c0,3.1-1.2,4.6-3.7,4.6H40.6c-2.5,0-3.7-1.5-3.7-4.6v-16.3l-4,1l0.2,2.4h-2c-2.9,0-5.2,0.9-7,2.8
	c-1.8,1.8-2.6,4.3-2.6,7.2c0,5.7,2.6,9.2,6.9,9.2c2.4-0.1,4.3-0.6,5.7-1.6c0.4,0.6,0.9,1.1,1.6,1.6c1.1,0.7,2.4,1.1,3.8,1.1h19.7
	c1.7,0,3.1-0.6,4.1-1.8c1.1,1.2,2.5,1.8,4.3,1.8H73c1.4,0,2.5-0.4,3.5-1.1C77.6,438.3,79.5,439.7,82,439.7 M84.7,421.1
	c0.7,0,1.6,0.1,2.6,0.4l0.4,3.2l0.1,9.3c-1.4,1.8-3,2.7-4.9,2.7c-2.6,0-4.3-2.9-4.3-7.3c0-2.5,0.5-4.4,1.4-5.9
	C81.2,421.9,82.7,421.1,84.7,421.1 M33.6,432.1c-1.5,0.5-2.9,0.8-4.2,0.8c-3.1,0-4.6-2.3-4.6-7.1c0-2,0.6-3.7,1.8-5
	c1.2-1.3,2.5-2,4.2-2c0.7-0.1,1.6-0.1,2.6-0.1L33.6,432.1z M369.1,436.8c3.7,0,5.9-2.5,5.9-6.6v-13.4l-3.9,1l0.7,5.9v5.7
	c0,3.1-1.2,4.6-3.8,4.6h-5.4c-2.5,0-3.7-1.5-3.7-4.6v-12.6l-3.9,1l0.7,6v5.6c0,3.1-1.2,4.6-3.7,4.6h-31.7c-2.5,0-3.7-1.5-3.7-4.6
	v-22.8l-3.9,1l0.7,6v15.8c0,3.1-1.2,4.6-3.7,4.6h-18c-3.5,0-5.7-3.2-5.7-8.3c0-2,0.4-3.6,1.2-4.9l0.3-0.5h-2.5l-0.1,0.1
	c-0.9,1.7-1.4,3.8-1.4,6.2c0,6.1,3,10.1,7.7,10.1h19.5c1.8,0,3.2-0.6,4.2-1.8c1.1,1.2,2.5,1.8,4.4,1.8h33.9c1.7,0,3.1-0.6,4.1-1.8
	c1.1,1.2,2.5,1.8,4.3,1.8H369.1z M306.1,421.9h-12.2v-1.5h2.5v-1.6c0-4,1.6-6,4.6-6c1.4,0,2.6,0.5,3.7,1.6l0.1,0l-0.5,0.8l0-0.1
	c-0.7-0.6-1.5-0.9-2.4-0.9c-2.5,0-3.8,1.6-3.8,4.9v1.2h4.3l1.8-0.3L306.1,421.9z M30.2,408.6c0-1-0.8-1.9-1.8-1.9
	c-1,0-1.8,0.9-1.8,1.9c0,1,0.8,1.9,1.8,1.9C29.4,410.5,30.2,409.7,30.2,408.6 M34.2,406.7c1,0,1.8,0.9,1.8,1.9c0,1-0.8,1.9-1.8,1.9
	c-1,0-1.8-0.9-1.8-1.9C32.4,407.6,33.2,406.7,34.2,406.7 M118,406.7c1,0,1.8,0.9,1.8,1.9c0,1-0.8,1.9-1.8,1.9c-1,0-1.8-0.9-1.8-1.9
	C116.2,407.6,117,406.7,118,406.7 M133.2,408.6c0-1-0.8-1.9-1.8-1.9c-1,0-1.8,0.9-1.8,1.9c0,1,0.8,1.9,1.8,1.9
	C132.4,410.5,133.2,409.7,133.2,408.6 M137.2,406.7c1,0,1.8,0.9,1.8,1.9c0,1-0.8,1.9-1.8,1.9c-1,0-1.8-0.9-1.8-1.9
	C135.4,407.6,136.2,406.7,137.2,406.7 M265.1,408.6c0-1-0.8-1.9-1.8-1.9c-1,0-1.8,0.9-1.8,1.9c0,1,0.8,1.9,1.8,1.9
	C264.3,410.5,265.1,409.7,265.1,408.6 M269.1,406.7c1,0,1.8,0.9,1.8,1.9c0,1-0.8,1.9-1.8,1.9c-1,0-1.8-0.9-1.8-1.9
	C267.3,407.6,268.1,406.7,269.1,406.7 M357.1,406.7c1,0,1.8,0.9,1.8,1.9c0,1-0.8,1.9-1.8,1.9c-1,0-1.8-0.9-1.8-1.9
	C355.3,407.6,356.1,406.7,357.1,406.7 M58.8,444.7c0-1.1-0.8-1.9-1.8-1.9c-1,0-1.8,0.8-1.8,1.9c0,1,0.8,1.9,1.8,1.9
	C58.1,446.5,58.8,445.7,58.8,444.7 M62.8,442.8c1,0,1.8,0.8,1.8,1.9c0,1-0.8,1.9-1.8,1.9c-1,0-1.8-0.9-1.8-1.9
	C61,443.6,61.9,442.8,62.8,442.8 M370.7,442.8c1,0,1.8,0.8,1.8,1.9c0,1-0.8,1.9-1.8,1.9c-1,0-1.8-0.9-1.8-1.9
	C368.9,443.6,369.7,442.8,370.7,442.8"/>
</svg>
